# xmcd
#
# Track frame offsets: 
#        150
#        16367
#        27127
#        40872
#        67372
#        82132
#        93650
#        110037
#        124382
#        145032
#        158460
#        170297
#        188172
#        200430
#
# Disc length: 2828 seconds
#
# Revision: 0
# Processed by: cddbd v1.4PL0 Copyright (c) Steve Scherf et al.
# Submitted via: ExactAudioCopy v0.90b4
#
DISCID=c20b0a0e
DTITLE=The Five Points Band - Roots and The Spirit
DYEAR=2002
DGENRE=Blues
TTITLE0=Candyman
TTITLE1=Angel Child
TTITLE2=Name of My Game
TTITLE3=Smokin' Loco
TTITLE4=J-Bird's Blues
TTITLE5=Nobody's Fault
TTITLE6=TV Preacher
TTITLE7=Call Me the Hammer
TTITLE8=(medley) Reno Ride, M and O Blues, Leave 'em Now
TTITLE9=Maggie Walker
TTITLE10=Lady's Blues
TTITLE11=New Special Rider Blues
TTITLE12=900 Miles
TTITLE13=Love in Vain
EXTD=
EXTT0=
EXTT1=
EXTT2=
EXTT3=
EXTT4=
EXTT5=
EXTT6=
EXTT7=
EXTT8=
EXTT9=
EXTT10=
EXTT11=
EXTT12=
EXTT13=
PLAYORDER=
